<?xml version="1.0" encoding="UTF-8"?>
<svg id="Layer_4" data-name="Layer 4" xmlns="http://www.w3.org/2000/svg" viewBox="0 0 964.81 618.86">
  <defs>
    <style>
      .cls-1 {
        stroke: #acadaa;
        stroke-miterlimit: 10;
        stroke-width: 15px;
      }

      .cls-1, .cls-2 {
        fill: #fff;
      }

      .cls-3 {
        fill: #4c5155;
      }

      .cls-4 {
        fill: #ccc;
      }
    </style>
  </defs>
  <rect y="0" width="964.81" height="618.86"/>
  <path class="cls-4" d="M375.01,411.19v1.06c1.46-.65,2.66-1.28,3.45-1.93-1.14.32-2.29.6-3.45.87ZM375.01,411.19v1.06c1.46-.65,2.66-1.28,3.45-1.93-1.14.32-2.29.6-3.45.87ZM375.01,411.19v1.06c1.46-.65,2.66-1.28,3.45-1.93-1.14.32-2.29.6-3.45.87ZM375.01,411.19v1.06c1.46-.65,2.66-1.28,3.45-1.93-1.14.32-2.29.6-3.45.87ZM599.95,410.9c4.06,3.4,13.4,5.42,19.02,8.96v-4.81c-6.27-1.58-12.77-2.53-19.02-4.15ZM558.34,379.85l-2.11-1.14v22.55c2.55-.83,5.04-1.82,7.45-2.96v-15.56l-5.34-2.89ZM375.01,411.19v1.06c1.46-.65,2.66-1.28,3.45-1.93-1.14.32-2.29.6-3.45.87ZM599.95,410.9c4.06,3.4,13.4,5.42,19.02,8.96v-4.81c-6.27-1.58-12.77-2.53-19.02-4.15ZM558.34,379.85l-2.11-1.14v22.55c2.55-.83,5.04-1.82,7.45-2.96v-15.56l-5.34-2.89ZM375.01,411.19v1.06c1.46-.65,2.66-1.28,3.45-1.93-1.14.32-2.29.6-3.45.87ZM599.95,410.9c4.06,3.4,13.4,5.42,19.02,8.96v-4.81c-6.27-1.58-12.77-2.53-19.02-4.15ZM556.23,378.71v22.55c2.55-.83,5.04-1.82,7.45-2.96v-15.56l-5.34-2.89-2.11-1.14ZM375.01,412.25c1.46-.65,2.66-1.28,3.45-1.93-1.14.32-2.29.6-3.45.87v1.06ZM906.11,350.46c-6.86-6.83-15.96-10.59-25.63-10.59h-.2l-199.86,1.03c5.31-14.18,4.9-28.57-1.37-41.56-5.37-11.11-20.44-28.59-61.08-20.73-5.41,1.04-10.63,2.4-15.33,3.81-.01-.02-.02-.05-.03-.07,13.88-7.47,28.84-20.03,33.13-40.43,4.55-21.62-4.27-40.05-13.72-51.7,1.26-6.3,2.12-14.09,1.58-22.24-1.49-22.58-13.05-39.96-32.57-48.95l-.74-.32c-22.79-9.3-45.09-6.59-62.8,7.65-4.92,3.95-8.82,8.28-11.79,12.17-21.08-1.63-42.28-.7-54.84.19-.65-.79-1.34-1.6-2.07-2.42-4.75-5.37-12.66-12.84-23.29-17.86-17.37-8.21-35.81-7.33-53.34,2.53-20.46,11.51-31.31,30.55-30.56,53.62.23,7.17,1.57,13.65,3.02,18.71-13.91,21.47-17.49,41.23-10.66,58.85,5.34,13.77,15.96,22.96,26.45,29-.04.07-.08.13-.13.2-17.79-7.51-36.48-9.88-51.32-5.98-12.7,3.33-22.63,11.21-27.96,22.17-7.44,15.33-2.82,32.32,4.64,46.49l-.43.02c-7.24.31-13.8,3.02-18.94,7.34-5.25-3.67-11.64-5.83-18.53-5.83h-24.45c-8.81,0-17.04,3.47-23.18,9.77-.59.6-1.16,1.23-1.69,1.87-6.06-4.53-13.08-7.99-20.93-10.26-13.79-4-26.32-3.17-30.88-2.67h-42.5c-18.27,0-33.14,14.87-33.14,33.14v126.27c.21,11.48,3.91,20.58,10.98,27.05,11.74,10.73,27.49,9.6,40.15,8.69,2.75-.2,5.34-.38,7.68-.44,6.23-.15,11.53-1.45,15.99-3.51,6.92,4.61,15.29,6.92,25.01,6.92,3.87,0,7.95-.36,12.24-1.1,10.13-1.73,18.43-4.32,24.99-7.81,5.31,5.01,12.46,8.08,20.32,8.08h26.14c5.29,0,10.27-1.4,14.57-3.84,4.31,2.44,9.28,3.84,14.57,3.84h67.88c10.45,0,20.16-3.19,28.23-8.64,5.36,5.33,12.75,8.64,20.89,8.64h67.86c10.67,0,20.56-3.35,28.69-9.06,5.4,5.58,12.96,9.06,21.31,9.06h35.12c9.86,0,18.62-4.85,24.01-12.28,5.39,7.43,14.15,12.28,24.01,12.28h35.58c16.34,0,29.64-13.3,29.64-29.65v-75.85c0-2.8,2.27-5.07,5.07-5.07h.43c2.8,0,5.07,2.27,5.07,5.07v75.85c0,16.35,13.3,29.65,29.64,29.65h34.72c16.34,0,29.64-13.3,29.64-29.65v-76.28c0-2.8,2.28-5.07,5.07-5.07s5.07,2.27,5.07,5.07v76.28c0,16.35,13.3,29.65,29.65,29.65h37.28c16.35,0,29.64-13.3,29.64-29.65v-83.02c16.39-3.52,28.72-18.12,28.72-35.55v-17.11c0-9.75-3.81-18.9-10.72-25.77ZM257.11,504.56h-11.42v-18.43h-54.42l5.92,16.15c-2.3.81-5.65,1.73-10.41,2.54-7.1,1.22-10.18.12-10.59-.22-.15-.17-.34-.77-.38-1.15.05.47.02.75.02.75h-18.5l-18.49-.5c.01-.38.02-.61.04-.74.22-.4.84-.95,1.27-1.11-.09.03-.49.12-1.27.14-3.22.08-6.37.31-9.43.53-3.31.23-8.31.59-11.48.4v-121.65h39.79l1.27.05,1.47-.25c.87-.11,9.15-1.01,17.58,1.67,9.9,3.15,15.68,9.87,18.19,21.16,2.94,13.21,1.98,20.9.1,23.68-.42.63-1.03,1.1-1.84,1.52-.07.02-.14.04-.21.06-8.62,2.53-13.93,5.11-17.25,11.44l-6.1,11.6,8.92,9.6c1.48,1.59,9.42,9.22,21.37,4.21.26-.09.55-.18.87-.28.66-.21,1.44-.46,2.31-.76,4.28,6.09,11.17,8.4,17.15,7.75,2.59-.28,15.56-2.53,16.9-19.18.14-1.78.24-4.14.3-7.22.11-4.92.11-11.9.03-20.74-.14-13.98-.49-30.38-.79-43.02h15.08v34.08h4v87.92ZM651.56,339.58c-5.46-.89-3.12-13.56,2.32-14.5,8.89-1.52,4.01,15.53-2.32,14.5ZM657.36,319.86c-3.1-1.5-5.67-10.77-2.32-12.17,7.01-2.93,11.18,16.49,2.32,12.17ZM648.12,343.95h-5.44c.56-.77,1.22-1.32,1.92-1.47,1.9-.41,3.01.28,3.52,1.47ZM477.61,172.59c-10.46,3.04-16.94-8.56-6.38-10.44,10.3-1.83,15.68,7.74,6.38,10.44ZM334.39,352.34c-3.55,1.52-7.36-4.93-5.89-8.39.25-.6.66-1.11,1.25-1.47,1.5-.51,2.88.21,3.93,1.47,2.17,2.58,2.96,7.42.71,8.39ZM325.7,339.58c-5.49,1.67-11.34-12.93-5.22-14.5,6.94-1.77,10.59,12.86,5.22,14.5ZM320.77,318.42c-7.86,9.01-8.32-9.45-2.03-10.73,6.56-1.34,4.8,7.54,2.03,10.73ZM879.83,392.7h-28.72v111.86h-22.57v-68.93c0-23.2-18.87-42.07-42.07-42.07s-42.07,18.87-42.07,42.07v68.93h-20v-68.5c0-23.2-18.87-42.07-42.07-42.07h-.56c-6.65.02-12.94,1.59-18.53,4.37-4.84,2.4-9.16,5.72-12.72,9.72-1.17,1.3-2.26,2.68-3.25,4.12-2.25,3.25-4.05,6.84-5.32,10.66-1.37,4.15-2.12,8.59-2.12,13.2v68.5h-20.86v-91.94l-31.37-16.96-3.45-1.86-7.47-4.04-13-7.02-5.34-2.89-2.11-1.14v125.85h-20.4v-27.79l-.35-28.9-.16-13.41-.57-46.7h-43.21v103.73c0,7.2-5.86,13.07-13.07,13.07h-60.5v-114.95h-42.96v101.43c0,7.45-6.07,13.52-13.52,13.52h-60.52v-87.92h1.14v-35.85l15.76-.67,33.53-1.43,21.37-.91-28.59-29.6s-1.56-1.62-3.76-4.23c-2.55-3.01-6.01-7.38-9.15-12.3-7.15-11.23-7.32-17.02-6.99-17.94.25-.51.83-1.7,4.08-2.55,8.46-2.22,25.67,1.09,40.88,11.61l32.25,24.21-3.19-38.55c.46-2.08,3-10.36,15.47-20.73l30.43-25.21-38.8-7.19c-7.27-1.42-23.43-7.34-26.96-16.58-.98-2.56-1.04-5.7-.2-9.31-2.54-1.28-4.91-3.14-5.29-5.51-.89-5.54,5.18-8.97,12.37-9.94,1.38-2.17,2.95-4.42,4.7-6.73l7.13-8.95-5.22-10.25c-.34-.76-3.33-7.65-3.37-15.49-.04-7.68,2.73-13.21,8.91-17.54,0,0,0-.01.01-.01.87-.61,1.81-1.2,2.82-1.77.93-.52,1.83-.98,2.73-1.37,4.67-2.09,8.95-2.48,13.27-1.25,8.48,2.42,15.13,10.26,17.53,13.67l2.5,14.09,12.2-1.33c-.87-3.81.88-7.77,6.47-8.5,6.2-.8,9.03,2.97,9.63,7.03,6.07-.4,14.18-.81,23.14-.89-.56-1.54-.46-3.31.57-5.27.84-1.59,6.18-4.7,7.82-4.93,7.8-1.09,14.91,5.42,14.86,10.82,3.96.28,7.91.65,11.75,1.15l13.53,1.76,5.68-12.4c.02-.06,3.06-6.08,8.69-10.6,4.45-3.58,11.9-7.7,25.23-2.4,7.24,3.49,10,9.98,10.72,16.46.01.14.03.28.05.43.05.42.08.85.1,1.28.02.22.03.44.03.67v.06c0,.19.01.37.01.56.2,8.06-2.24,15.4-2.49,16.13l-5.81,12.81,11.21,8.64c.45.39,2.29,2.04,4.29,4.64,8.91,2.18,15.11,8.01,5.89,14.14.14,1.81.04,3.72-.37,5.68-2.26,10.77-17.22,18.18-29.34,21.24l-37.31,8.73,29.66,23.13c1.12,1.14,7.52,8.13,9.54,21.79l3.58,24.01,22.21-9.8c.14-.06,13.46-5.9,27.59-8.55,13.81-2.6,19.77-.45,20.27.58,5.35,11.08-6.91,24.3-11.28,28.52-.78.76-1.31,1.22-1.45,1.34l-32.36,25.82-9.09,7.25,4.72-.02,29.9-.16,55.6-.28,198.06-1.02v15.82ZM375.01,411.19v1.06c1.46-.65,2.66-1.28,3.45-1.93-1.14.32-2.29.6-3.45.87ZM558.34,379.85l-2.11-1.14v22.55c2.55-.83,5.04-1.82,7.45-2.96v-15.56l-5.34-2.89ZM599.95,410.9c4.06,3.4,13.4,5.42,19.02,8.96v-4.81c-6.27-1.58-12.77-2.53-19.02-4.15ZM375.01,411.19v1.06c1.46-.65,2.66-1.28,3.45-1.93-1.14.32-2.29.6-3.45.87ZM558.34,379.85l-2.11-1.14v22.55c2.55-.83,5.04-1.82,7.45-2.96v-15.56l-5.34-2.89ZM599.95,410.9c4.06,3.4,13.4,5.42,19.02,8.96v-4.81c-6.27-1.58-12.77-2.53-19.02-4.15ZM375.01,411.19v1.06c1.46-.65,2.66-1.28,3.45-1.93-1.14.32-2.29.6-3.45.87ZM375.01,411.19v1.06c1.46-.65,2.66-1.28,3.45-1.93-1.14.32-2.29.6-3.45.87ZM375.01,411.19v1.06c1.46-.65,2.66-1.28,3.45-1.93-1.14.32-2.29.6-3.45.87ZM375.01,411.19v1.06c1.46-.65,2.66-1.28,3.45-1.93-1.14.32-2.29.6-3.45.87Z"/>
  <g id="Generative_Object" data-name="Generative Object">
    <g>
      <path class="cls-2" d="M438.53,399.59c.02.12,0,.21-.06.29.02-.1.05-.19.06-.29Z"/>
      <path class="cls-2" d="M438.53,399.59c.02.12,0,.21-.06.29.02-.1.05-.19.06-.29Z"/>
      <path class="cls-2" d="M544,313.2c-3.94-5.54-13.81-5.96-17.39,0-2.43,4.03-2.7,17.09-2.36,31.31.37-.07.75-.14,1.13-.2.08-.02.17-.02.25-.04l.18-.03c.39-.06.79-.11,1.19-.14.95-.1,1.91-.15,2.88-.15h17.19c1.33-12.94,1.12-24.86-3.07-30.75ZM538.2,315.52c-.24.78-9.18,3.95-10.14,6.08-2.85-2.85.05-8.49,3.47-9.27,1.93-.44,7.69-.03,6.67,3.19ZM452.39,323.05c-1.97-17.58-17.8-19.67-22.04-4.63-2.12,7.54-2.17,16.14-1.17,25.14h23.79c.24-6.85.18-13.67-.58-20.51ZM448.04,322.76c-.61.11-8.31-6.81-10.15-7.24-.25-.98,1.2-3.49,2.03-3.77,7.14-2.4,12.36,10.27,8.12,11.01ZM544,313.2c-3.94-5.54-13.81-5.96-17.39,0-2.43,4.03-2.7,17.09-2.36,31.31.37-.07.75-.14,1.13-.2.08-.02.17-.02.25-.04l.18-.03c.39-.06.79-.11,1.19-.14.95-.1,1.91-.15,2.88-.15h17.19c1.33-12.94,1.12-24.86-3.07-30.75ZM538.2,315.52c-.24.78-9.18,3.95-10.14,6.08-2.85-2.85.05-8.49,3.47-9.27,1.93-.44,7.69-.03,6.67,3.19ZM452.39,323.05c-1.97-17.58-17.8-19.67-22.04-4.63-2.12,7.54-2.17,16.14-1.17,25.14h23.79c.24-6.85.18-13.67-.58-20.51ZM448.04,322.76c-.61.11-8.31-6.81-10.15-7.24-.25-.98,1.2-3.49,2.03-3.77,7.14-2.4,12.36,10.27,8.12,11.01ZM544,313.2c-3.94-5.54-13.81-5.96-17.39,0-2.43,4.03-2.7,17.09-2.36,31.31.37-.07.75-.14,1.13-.2.08-.02.17-.03.25-.04l.18-.03c.39-.06.79-.11,1.19-.14.95-.1,1.91-.15,2.88-.15h17.19c1.33-12.94,1.12-24.86-3.07-30.75ZM538.2,315.52c-.24.78-9.18,3.95-10.14,6.08-2.85-2.85.05-8.49,3.47-9.27,1.93-.44,7.69-.03,6.67,3.19ZM430.35,318.42c-2.12,7.54-2.17,16.14-1.17,25.14h23.79c.24-6.85.18-13.67-.58-20.51-1.97-17.58-17.8-19.67-22.04-4.63ZM448.04,322.76c-.61.11-8.31-6.81-10.15-7.24-.25-.98,1.2-3.49,2.03-3.77,7.14-2.4,12.36,10.27,8.12,11.01ZM663.24,398.36c-6.31-1.97-17.5-.56-20.96-.8-6.65-.47-13.41-1.63-20-2.61,6.28-3.31,34.43,3.08,36.53-4.06,1.14-3.88-1.44-6.96-4.93-8.4l-47.26,7.24c6.8-3.29,13.41-7.11,19.55-11.55.94-.67,1.86-1.36,2.78-2.07,7.99-6.17,20.68-18.56,29.18-31.98,9.52-15.01,13.79-31.31.39-41.66-15.38-11.86-49.24.98-65.2,8.57-1.23-4.83-3.8-12.29-5.25-15.82-2.81-6.79-7.27-21.79-11.79-29.43,3.76-1.13,9.05-2.76,15.36-4.85,11.39-3.78,13.29-4.81,14.98-6.02,7.93-5.67,10.45-14.68,11.02-16.81,2.89-10.85-1.09-22.68-6.96-31.6-1.27-1.93-9.19-10.3-9.28-11.02-.11-.94,4.84-12.31,5.22-15.65,5.84-50.49-60.37-66.49-81.46-21.75-24.58-2.51-49.06-2.47-73.64,0-28.45-53.74-102.56-17.19-76.25,37.98-1.4,1.32-21.21,20.55-16.23,41.46.72,3,2.6,10.9,9.27,16.23,2.59,2.07,4.97,3.01,15.77,6.57,6.21,2.05,11.72,3.81,16.32,5.26-8.29,12.13-14.81,34.08-17.01,47.9-16.82-8.03-47.45-24.29-64.65-11.6-13.97,10.31-9.7,26.95-.29,42.06,7.75,12.44,18.98,23.85,26.38,29.84,2.12,1.71,4.32,3.35,6.57,4.9,5.94,4.12,12.27,7.73,18.65,11.04-9.42.02-42.04-9.56-48.99-6.66-1.51.63-2.69,2.31-3.19,4.15-.36,1.27-.39,2.61,0,3.73.14.4.33.77.58,1.1,3.87,5.1,29.65-.16,36.53,2.9-10.24,3.76-26.37,1.04-37.11,2.04-1.35.12-2.61.3-3.77.57-6.1,1.39-5.66,10.67,0,11.6.94.15,2.23.16,3.77.07,7.7-.48,21.53-3.59,27.54-4.13,6.43-.58,12.99-.56,19.42-.87-10.99,4.37-27.43,4.33-37.97,8.41-1.59.61-2.96,1.27-3.77,2.9,1.69,1.2.77-1.49,3.19-1.16,9.22,1.23-2.18,5.22,4.34,7.82-2.51,2.78-5.4-1.55-7.53-3.76.99,4.91,4.23,6.52,8.98,5.79,5.17-.79,18.81-7.44,25.52-9.27,5.69-1.56,11.64-2.42,17.42-3.77,1.16-.27,2.31-.55,3.45-.87-.79.65-1.99,1.28-3.45,1.93-8.69,3.86-26.64,8.13-21.77,17.49,3.66,7.05,11.53-3.15,14.78-4.93,1.48-.81,3.98-1.99,6.99-3.39,3.44-1.59,7.55-3.46,11.54-5.34,8.05-3.81,15.66-7.71,16.5-9.66,1.62-3.77-.93-4.15-.93-4.15-6.26-3.34-11.32-7.52-15.57-12.28-.12-.13-.23-.25-.34-.38-10.98-12.48-16.55-28.84-23.85-44.4-2.54-5.42-5.29-10.75-8.54-15.78l27.59,14.71c.14,2.72.7,5.98,1.59,9.51h0c1.15,4.49,2.83,9.38,4.91,14.07t0,.01c3.78,8.59,8.88,16.5,14.34,19.98.96.61,1.96,1.25,3,1.9,1.42.88,2.9,1.79,4.42,2.71,2.68,1.59,5.49,3.18,8.3,4.63,7.57,3.9,15.14,6.72,20.21,5.64l-.29,2.8c-2.81,2.29-13.13,4.8-19.92,7.5-3.35,1.32-5.85,2.69-6.17,4.1-.88,3.81,2.42,6.98,6.17,6.79.35,0,.72-.05,1.08-.13,1.5-.32,4.94-4.68,6.96-5.79,4.37-2.43,9.48-3.45,13.33-6.96,1.81,6.32-11.57,20.88-3.48,24.35,11.46,4.91,5.36-18,9.28-22.61,4.91,5.82-1.74,26.38,9.86,23.77,10.64-2.4-6.1-17.82-3.48-23.77,8.02-1.45,15.08,11.65,22.61,8.11,1.21-.56,3.36-4.1,3.19-5.5-.91-7.53-21.69-6-23.77-8.99,11.9,1.25,24.96,1.73,37.99,1.55,3.4-.04,6.8-.13,10.17-.27,3.67-.14,7.3-.33,10.88-.58,3.79-.25,7.51-.56,11.14-.91-.01.07-.01.14-.02.21-.71,1.4-5.8,1.69-11.12,2.44-4.15.59-8.44,1.46-10.88,3.34-1.66,1.29-2.47,3.05-1.78,5.53.06.22.87,1.01,1.78,1.82,1.05.93,2.23,1.87,2.57,1.94,2.64.58,5.42-1.02,8.31-3.01,4.22-2.91,8.65-6.66,13.15-5.68,1.29,5.88-13.96,21.49-3.48,23.77,10.64,2.31,4.86-18.07,9.27-23.77,3.77,4.1-.04,17.48,3.79,21.82.83.96,2.03,1.47,3.75,1.37,11.94-.72-4.01-19.4-1.16-24.93,3.76,3.86,9.31,4.95,13.92,7.54,1.01.56,2.88,2.98,4.4,4.32.53.46,1.01.8,1.4.89,2.38.56,4.65-.25,6.05-1.82,1.24-1.37,1.81-3.33,1.19-5.42-.16-.54-.58-1.03-1.19-1.48-1.63-1.21-4.61-2.13-7.45-2.89-2.51-.67-4.9-1.22-6.14-1.72-2.75-1.12-10.79-4.38-11.89-5.8,6.04-.28,12.17-1.36,18.03-3.26,2.55-.83,5.04-1.82,7.45-2.96,3.5-1.66,6.82-3.64,9.89-5.96,1.09-.82,2.13-1.68,3.11-2.58,4.66-4.18,8.23-9.07,10.92-14.41,4.29-8.46,6.38-18.06,7.16-27.8,1.02-.41,3.15-1.79,5.76-3.6,7.11-4.93,17.79-13.11,19.44-13.94.62-.31,1.92-.6,2.32,0-2.72,4.49-5.22,9.18-7.65,13.94-4.62,9.04-8.98,18.36-13.99,27.16-1.4,2.46-2.85,4.87-4.37,7.23-2.64,4.1-5.49,8.03-8.67,11.7-1.1,1.29-2.26,2.54-3.45,3.76-3.81,3.88-8.06,7.4-12.9,10.43,0,0-3.07,2.55,3.48,5.51,2.66,1.2,7.41,3.32,12.87,5.84,7.98,3.69,17.49,8.25,24.24,12.13,1.4.81,4.17,3.8,5.51,4.06.57.11,1.12.17,1.62.18,4.48.07,6.28-3.71,3.89-8.3-.76-1.46-2.15-2.7-3.89-3.79-5.62-3.54-14.96-5.56-19.02-8.96,6.25,1.62,12.75,2.57,19.02,4.15.62.15,1.24.32,1.86.49,3.92,1.08,13.8,5.12,21.12,7.32,3.55,1.08,6.5,1.72,7.87,1.37,3.01-.75,5.33-5.96,3.77-8.98-.55-1.06-2.94-2.08-6.32-3.05-10.7-3.08-31.39-5.76-35.72-8.26,8.27.85,16.67.88,24.93,1.74,2.68.28,8.31,1.56,14.04,2.4,7.33,1.06,14.82,1.39,16.4-2.11,1.93-4.26-.08-6.48-3.68-7.61ZM358.17,425.39c-1.04-.28-1.12-1.93,0-2.32,3.43-1.17,2.58,3.04,0,2.32ZM655.04,307.69c7.01-2.93,11.18,16.49,2.32,12.17-3.1-1.5-5.67-10.77-2.32-12.17ZM653.88,325.08c8.89-1.52,4.01,15.53-2.32,14.5-5.46-.89-3.12-13.56,2.32-14.5ZM648.12,343.95c1.34,3.1-1.44,9.54-5.26,8.39-2.74-.83-2.04-5.83-.18-8.39.56-.77,1.22-1.32,1.92-1.47,1.9-.41,3.01.28,3.52,1.47ZM414.12,223.03c5.01-.36,33.5,9.64,42.62,11.02,24.56,3.73,50.48,2.82,74.79-2.32,6.38-1.35,27.3-9.13,31.02-8.7-44.2,23.14-104.24,23.4-148.43,0ZM477.03,203.9c5.5.28,4.23,11.11.58,11.02-3.57-.1-4.38-9.56-.58-11.02ZM498.48,203.9l2.32.58c6.27,15.16-11.06,11.26-2.32-.58ZM599.9,228.62c-1.55,1.03-3.54,2.08-6.03,3.11-6.32-.67-10.37,1.84-17.69-1.74-1.43-.7-3.98-3.88-4.35-4.06-1.44-11.72,12.1-13.92,22.18-11.45,8.91,2.18,15.11,8.01,5.89,14.14ZM586.67,169.69c.05.42.08.85.1,1.28.02.22.03.44.03.67v.06c0,.19.01.37.01.56,0,9.26-5.39,18.48-16.43,20.62-29.71,5.76-34.61-37.88-9.27-41.74,15.5-2.36,24.15,7.39,25.51,18.12.01.14.03.28.05.43ZM488.34,169.4c.84-1.59,6.18-4.7,7.82-4.93,7.8-1.09,14.91,5.42,14.86,10.82-.03,2.56-1.66,4.87-5.58,6-5.53,1.6-15.7-1.12-17.67-6.62-.56-1.54-.46-3.31.57-5.27ZM471.23,162.15c10.3-1.83,15.68,7.74,6.38,10.44-10.46,3.04-16.94-8.56-6.38-10.44ZM455,168.53c6.2-.8,9.03,2.97,9.63,7.03.57,3.82-.83,7.89-3.25,8.63-6.73,2.04-11.78-2.45-12.85-7.16-.87-3.81.88-7.77,6.47-8.5ZM397.48,154.99c1.59-1.3,3.44-2.37,5.55-3.14,2.01-.73,4.26-1.18,6.74-1.29,28.44-1.29,29.6,40.97,3.48,42.9-23.94,1.77-29.64-27.12-15.78-38.46,0,0,0-.01.01-.01ZM372.95,223.9c-.89-5.54,5.18-8.97,12.37-9.94,10.03-1.35,22.24,2.11,20.68,11.39-9.52,4.95-8.65,9.61-23.19,5.8-1.29-.34-2.97-.92-4.57-1.74-2.54-1.28-4.91-3.14-5.29-5.51ZM318.74,307.69c6.56-1.34,4.8,7.54,2.03,10.73-7.86,9.01-8.32-9.45-2.03-10.73ZM320.48,325.08c6.94-1.77,10.59,12.86,5.22,14.5-5.49,1.67-11.34-12.93-5.22-14.5ZM334.39,352.34c-3.55,1.52-7.36-4.93-5.89-8.39.25-.6.66-1.11,1.25-1.47,1.5-.51,2.88.21,3.93,1.47,2.17,2.58,2.96,7.42.71,8.39ZM438.47,399.88c.02-.1.05-.19.06-.29.02.12,0,.21-.06.29ZM439.92,311.75c7.14-2.4,12.36,10.27,8.12,11.01-.61.11-8.31-6.81-10.15-7.24-.25-.98,1.2-3.49,2.03-3.77ZM538.2,315.52c-.24.78-9.18,3.95-10.14,6.08-2.85-2.85.05-8.49,3.47-9.27,1.93-.44,7.69-.03,6.67,3.19ZM557.34,380.75c-.35.29-.72.58-1.11.86-6.19,4.41-16.87,6.67-16.87,6.67,1.69-9.29,5.99-27.65,7.71-44.33,1.33-12.94,1.12-24.86-3.07-30.75-3.94-5.54-13.81-5.96-17.39,0-2.43,4.03-2.7,17.09-2.36,31.31.38,16.32,1.56,34.18,1.2,41.74-.03.5-.05,1.01-.09,1.51-.14,2.29-.34,4.58-.55,6.87-3.97.56-8.05,1.03-12.22,1.42-3.58.32-7.21.59-10.88.78-3.37.19-6.77.32-10.17.39-13.53.3-27.12-.3-39.43-1.86-2.05-17.92.29-34.95.86-51.8.24-6.85.18-13.67-.58-20.51-1.97-17.58-17.8-19.67-22.04-4.63-2.12,7.54-2.17,16.14-1.17,25.14,1.84,16.77,7.29,34.91,9.63,50.07-3.87-2.22-13.67.1-27.96-21.9-3.89-5.99-6.33-14.37-7.16-23.85-2.2-25.3,7.13-58.45,31.09-75.17,24.04,3.42,48.64,3.99,72.4,3.09,11.65-.44,23.31-1.39,34.87-3h.01c21.51,15.59,34.44,48.7,32.17,75.35,0,.04,0,.07,0,.1h0c-.02.31-.05.61-.08.9-.87,8.74-5.64,17.97-10.47,24.53-1.84,2.51-3.7,4.63-5.34,6.17-.34.33-.68.63-1,.9ZM649.82,414.96c5.22-.61,2.37,9.96-1.45,7.24,2.86-1.44.32-4.01-1.16-5.21,0-.29,2.31-2,2.61-2.03ZM452.39,323.05c-1.97-17.58-17.8-19.67-22.04-4.63-2.12,7.54-2.17,16.14-1.17,25.14h23.79c.24-6.85.18-13.67-.58-20.51ZM448.04,322.76c-.61.11-8.31-6.81-10.15-7.24-.25-.98,1.2-3.49,2.03-3.77,7.14-2.4,12.36,10.27,8.12,11.01ZM544,313.2c-3.94-5.54-13.81-5.96-17.39,0-2.43,4.03-2.7,17.09-2.36,31.31.37-.07.75-.14,1.13-.2.08-.02.17-.02.25-.04l.18-.03c.39-.06.79-.11,1.19-.14.95-.1,1.91-.15,2.88-.15h17.19c1.33-12.94,1.12-24.86-3.07-30.75ZM538.2,315.52c-.24.78-9.18,3.95-10.14,6.08-2.85-2.85.05-8.49,3.47-9.27,1.93-.44,7.69-.03,6.67,3.19ZM452.39,323.05c-1.97-17.58-17.8-19.67-22.04-4.63-2.12,7.54-2.17,16.14-1.17,25.14h23.79c.24-6.85.18-13.67-.58-20.51ZM448.04,322.76c-.61.11-8.31-6.81-10.15-7.24-.25-.98,1.2-3.49,2.03-3.77,7.14-2.4,12.36,10.27,8.12,11.01ZM544,313.2c-3.94-5.54-13.81-5.96-17.39,0-2.43,4.03-2.7,17.09-2.36,31.31.37-.07.75-.14,1.13-.2.08-.02.17-.02.25-.04l.18-.03c.39-.06.79-.11,1.19-.14.95-.1,1.91-.15,2.88-.15h17.19c1.33-12.94,1.12-24.86-3.07-30.75ZM538.2,315.52c-.24.78-9.18,3.95-10.14,6.08-2.85-2.85.05-8.49,3.47-9.27,1.93-.44,7.69-.03,6.67,3.19Z"/>
    </g>
    <g>
      <path class="cls-2" d="M402.23,172.01c-10.43,1.74-11.36-13.1-3.48-14.5,10.36-1.83,11.99,13.08,3.48,14.5Z"/>
      <path class="cls-2" d="M412.67,183.61c5.44-1.38,4.84,7.95-.58,5.79-2.5-.99-1.38-5.3.58-5.79Z"/>
      <path class="cls-2" d="M562.27,183.61c-2.46.55-2.55,5.09,0,5.79,5.38,1.49,4.53-6.82,0-5.79ZM574.44,157.51c-8.27,1.48-6.77,16.32,3.48,14.5,8.46-1.51,6.65-16.3-3.48-14.5ZM574.44,157.51c-8.27,1.48-6.77,16.32,3.48,14.5,8.46-1.51,6.65-16.3-3.48-14.5ZM562.27,183.61c-2.46.55-2.55,5.09,0,5.79,5.38,1.49,4.53-6.82,0-5.79ZM562.27,183.61c-2.46.55-2.55,5.09,0,5.79,5.38,1.49,4.53-6.82,0-5.79ZM574.44,157.51c-8.27,1.48-6.77,16.32,3.48,14.5,8.46-1.51,6.65-16.3-3.48-14.5ZM574.44,157.51c-8.27,1.48-6.77,16.32,3.48,14.5,8.46-1.51,6.65-16.3-3.48-14.5ZM562.27,183.61c-2.46.55-2.55,5.09,0,5.79,5.38,1.49,4.53-6.82,0-5.79ZM562.27,183.61c-2.46.55-2.55,5.09,0,5.79,5.38,1.49,4.53-6.82,0-5.79ZM574.44,157.51c-8.27,1.48-6.77,16.32,3.48,14.5,8.46-1.51,6.65-16.3-3.48-14.5ZM574.44,157.51c-8.27,1.48-6.77,16.32,3.48,14.5,8.46-1.51,6.65-16.3-3.48-14.5ZM562.27,183.61c-2.46.55-2.55,5.09,0,5.79,5.38,1.49,4.53-6.82,0-5.79ZM562.27,183.61c-2.46.55-2.55,5.09,0,5.79,5.38,1.49,4.53-6.82,0-5.79ZM574.44,157.51c-8.27,1.48-6.77,16.32,3.48,14.5,8.46-1.51,6.65-16.3-3.48-14.5ZM574.44,157.51c-8.27,1.48-6.77,16.32,3.48,14.5,8.46-1.51,6.65-16.3-3.48-14.5ZM562.27,183.61c-2.46.55-2.55,5.09,0,5.79,5.38,1.49,4.53-6.82,0-5.79ZM562.27,183.61c-2.46.55-2.55,5.09,0,5.79,5.38,1.49,4.53-6.82,0-5.79ZM574.44,157.51c-8.27,1.48-6.77,16.32,3.48,14.5,8.46-1.51,6.65-16.3-3.48-14.5ZM574.44,157.51c-8.27,1.48-6.77,16.32,3.48,14.5,8.46-1.51,6.65-16.3-3.48-14.5ZM562.27,183.61c-2.46.55-2.55,5.09,0,5.79,5.38,1.49,4.53-6.82,0-5.79ZM562.27,183.61c-2.46.55-2.55,5.09,0,5.79,5.38,1.49,4.53-6.82,0-5.79ZM574.44,157.51c-8.27,1.48-6.77,16.32,3.48,14.5,8.46-1.51,6.65-16.3-3.48-14.5ZM574.44,157.51c-8.27,1.48-6.77,16.32,3.48,14.5,8.46-1.51,6.65-16.3-3.48-14.5ZM562.27,183.61c-2.46.55-2.55,5.09,0,5.79,5.38,1.49,4.53-6.82,0-5.79ZM562.27,183.61c-2.46.55-2.55,5.09,0,5.79,5.38,1.49,4.53-6.82,0-5.79ZM574.44,157.51c-8.27,1.48-6.77,16.32,3.48,14.5,8.46-1.51,6.65-16.3-3.48-14.5ZM574.44,157.51c-8.27,1.48-6.77,16.32,3.48,14.5,8.46-1.51,6.65-16.3-3.48-14.5ZM562.27,183.61c-2.46.55-2.55,5.09,0,5.79,5.38,1.49,4.53-6.82,0-5.79ZM562.27,183.61c-2.46.55-2.55,5.09,0,5.79,5.38,1.49,4.53-6.82,0-5.79ZM574.44,157.51c-8.27,1.48-6.77,16.32,3.48,14.5,8.46-1.51,6.65-16.3-3.48-14.5ZM574.44,157.51c-8.27,1.48-6.77,16.32,3.48,14.5,8.46-1.51,6.65-16.3-3.48-14.5ZM562.27,183.61c-2.46.55-2.55,5.09,0,5.79,5.38,1.49,4.53-6.82,0-5.79ZM562.27,183.61c-2.46.55-2.55,5.09,0,5.79,5.38,1.49,4.53-6.82,0-5.79ZM574.44,157.51c-8.27,1.48-6.77,16.32,3.48,14.5,8.46-1.51,6.65-16.3-3.48-14.5ZM562.27,183.61c-2.46.55-2.55,5.09,0,5.79,5.38,1.49,4.53-6.82,0-5.79ZM574.44,157.51c-8.27,1.48-6.77,16.32,3.48,14.5,8.46-1.51,6.65-16.3-3.48-14.5ZM562.27,183.61c-2.46.55-2.55,5.09,0,5.79,5.38,1.49,4.53-6.82,0-5.79ZM574.44,157.51c-8.27,1.48-6.77,16.32,3.48,14.5,8.46-1.51,6.65-16.3-3.48-14.5ZM562.27,183.61c-2.46.55-2.55,5.09,0,5.79,5.38,1.49,4.53-6.82,0-5.79ZM574.44,157.51c-8.27,1.48-6.77,16.32,3.48,14.5,8.46-1.51,6.65-16.3-3.48-14.5ZM574.44,157.51c-8.27,1.48-6.77,16.32,3.48,14.5,8.46-1.51,6.65-16.3-3.48-14.5ZM562.27,183.61c-2.46.55-2.55,5.09,0,5.79,5.38,1.49,4.53-6.82,0-5.79ZM562.27,183.61c-2.46.55-2.55,5.09,0,5.79,5.38,1.49,4.53-6.82,0-5.79ZM574.44,157.51c-8.27,1.48-6.77,16.32,3.48,14.5,8.46-1.51,6.65-16.3-3.48-14.5ZM574.44,157.51c-8.27,1.48-6.77,16.32,3.48,14.5,8.46-1.51,6.65-16.3-3.48-14.5ZM562.27,183.61c-2.46.55-2.55,5.09,0,5.79,5.38,1.49,4.53-6.82,0-5.79ZM562.27,183.61c-2.46.55-2.55,5.09,0,5.79,5.38,1.49,4.53-6.82,0-5.79ZM574.44,157.51c-8.27,1.48-6.77,16.32,3.48,14.5,8.46-1.51,6.65-16.3-3.48-14.5ZM574.44,157.51c-8.27,1.48-6.77,16.32,3.48,14.5,8.46-1.51,6.65-16.3-3.48-14.5ZM562.27,183.61c-2.46.55-2.55,5.09,0,5.79,5.38,1.49,4.53-6.82,0-5.79ZM562.27,183.61c-2.46.55-2.55,5.09,0,5.79,5.38,1.49,4.53-6.82,0-5.79ZM574.44,157.51c-8.27,1.48-6.77,16.32,3.48,14.5,8.46-1.51,6.65-16.3-3.48-14.5ZM574.44,157.51c-8.27,1.48-6.77,16.32,3.48,14.5,8.46-1.51,6.65-16.3-3.48-14.5ZM562.27,183.61c-2.46.55-2.55,5.09,0,5.79,5.38,1.49,4.53-6.82,0-5.79ZM562.27,183.61c-2.46.55-2.55,5.09,0,5.79,5.38,1.49,4.53-6.82,0-5.79ZM574.44,157.51c-8.27,1.48-6.77,16.32,3.48,14.5,8.46-1.51,6.65-16.3-3.48-14.5ZM574.44,157.51c-8.27,1.48-6.77,16.32,3.48,14.5,8.46-1.51,6.65-16.3-3.48-14.5ZM562.27,183.61c-2.46.55-2.55,5.09,0,5.79,5.38,1.49,4.53-6.82,0-5.79ZM562.27,183.61c-2.46.55-2.55,5.09,0,5.79,5.38,1.49,4.53-6.82,0-5.79ZM574.44,157.51c-8.27,1.48-6.77,16.32,3.48,14.5,8.46-1.51,6.65-16.3-3.48-14.5ZM574.44,157.51c-8.27,1.48-6.77,16.32,3.48,14.5,8.46-1.51,6.65-16.3-3.48-14.5ZM562.27,183.61c-2.46.55-2.55,5.09,0,5.79,5.38,1.49,4.53-6.82,0-5.79ZM562.27,183.61c-2.46.55-2.55,5.09,0,5.79,5.38,1.49,4.53-6.82,0-5.79ZM574.44,157.51c-8.27,1.48-6.77,16.32,3.48,14.5,8.46-1.51,6.65-16.3-3.48-14.5ZM574.44,157.51c-8.27,1.48-6.77,16.32,3.48,14.5,8.46-1.51,6.65-16.3-3.48-14.5ZM562.27,183.61c-2.46.55-2.55,5.09,0,5.79,5.38,1.49,4.53-6.82,0-5.79ZM562.27,183.61c-2.46.55-2.55,5.09,0,5.79,5.38,1.49,4.53-6.82,0-5.79ZM574.44,157.51c-8.27,1.48-6.77,16.32,3.48,14.5,8.46-1.51,6.65-16.3-3.48-14.5ZM574.44,157.51c-8.27,1.48-6.77,16.32,3.48,14.5,8.46-1.51,6.65-16.3-3.48-14.5ZM562.27,183.61c-2.46.55-2.55,5.09,0,5.79,5.38,1.49,4.53-6.82,0-5.79ZM562.27,183.61c-2.46.55-2.55,5.09,0,5.79,5.38,1.49,4.53-6.82,0-5.79ZM574.44,157.51c-8.27,1.48-6.77,16.32,3.48,14.5,8.46-1.51,6.65-16.3-3.48-14.5ZM574.44,157.51c-8.27,1.48-6.77,16.32,3.48,14.5,8.46-1.51,6.65-16.3-3.48-14.5ZM562.27,183.61c-2.46.55-2.55,5.09,0,5.79,5.38,1.49,4.53-6.82,0-5.79Z"/>
      <path class="cls-2" d="M438.47,399.88c.06-.08.08-.17.06-.29,0,.1-.04.19-.06.29Z"/>
      <g>
        <g>
          <path class="cls-2" d="M562.27,189.4c-2.55-.7-2.46-5.24,0-5.79,4.53-1.03,5.38,7.28,0,5.79Z"/>
          <path class="cls-2" d="M577.92,172.01c-10.25,1.82-11.75-13.02-3.48-14.5,10.13-1.8,11.94,12.99,3.48,14.5Z"/>
          <g>
            <path class="cls-3" d="M562.27,189.4c-2.55-.7-2.46-5.24,0-5.79,4.53-1.03,5.38,7.28,0,5.79Z"/>
            <path class="cls-3" d="M577.92,172.01c-10.25,1.82-11.75-13.02-3.48-14.5,10.13-1.8,11.94,12.99,3.48,14.5Z"/>
            <path class="cls-2" d="M577.92,172.01c-10.25,1.82-11.75-13.02-3.48-14.5,10.13-1.8,11.94,12.99,3.48,14.5Z"/>
            <path class="cls-2" d="M562.27,189.4c-2.55-.7-2.46-5.24,0-5.79,4.53-1.03,5.38,7.28,0,5.79Z"/>
          </g>
        </g>
        <g>
          <path class="cls-2" d="M402.23,172.01c-10.43,1.74-11.36-13.1-3.48-14.5,10.36-1.83,11.99,13.08,3.48,14.5Z"/>
          <path class="cls-2" d="M412.09,189.4c-2.5-.99-1.38-5.3.58-5.79,5.44-1.38,4.84,7.95-.58,5.79Z"/>
          <g>
            <path class="cls-3" d="M402.23,172.01c-10.43,1.74-11.36-13.1-3.48-14.5,10.36-1.83,11.99,13.08,3.48,14.5Z"/>
            <path class="cls-3" d="M412.09,189.4c-2.5-.99-1.38-5.3.58-5.79,5.44-1.38,4.84,7.95-.58,5.79Z"/>
            <path class="cls-2" d="M402.23,172.01c-10.43,1.74-11.36-13.1-3.48-14.5,10.36-1.83,11.99,13.08,3.48,14.5Z"/>
            <path class="cls-2" d="M412.09,189.4c-2.5-.99-1.38-5.3.58-5.79,5.44-1.38,4.84,7.95-.58,5.79Z"/>
          </g>
        </g>
      </g>
    </g>
  </g>
  <path class="cls-4" d="M317.87,343.95h32.1c33.68,0,61.02,27.34,61.02,61.02v7.99c0,10.64-8.64,19.28-19.28,19.28h-54.57c-10.64,0-19.28-8.64-19.28-19.28v-69.01h0Z"/>
  <path class="cls-4" d="M420.19,343.56h51.31c22.67,0,41.08,18.41,41.08,41.08v47.08c0,8.69-7.06,15.75-15.75,15.75h-91.01c-10.64,0-19.28-8.64-19.28-19.28v-51c0-18.57,15.07-33.64,33.64-33.64Z"/>
  <path class="cls-4" d="M529.88,343.95h29.56c15.55,0,28.17,12.62,28.17,28.17v59.25c0,9.11-7.4,16.5-16.5,16.5h-49.36c-11.05,0-20.03-8.97-20.03-20.03v-55.73c0-15.55,12.62-28.17,28.17-28.17Z"/>
  <path class="cls-4" d="M681.77,370.61v39.4c0,20.91-16.95,37.86-37.86,37.86h-60.96c-2.15,0-4.22-.35-6.15-1.01-7.63-2.56-13.12-9.77-13.12-18.27v-60.24c0-8.34,4.18-15.69,10.55-20.09h0s.05-.04.07-.06c3.92-2.68,8.67-4.25,13.78-4.25h67.02c1.02,0,2.03.06,3.03.18,13.3,1.49,23.64,12.78,23.64,26.48Z"/>
  <g>
    <path class="cls-1" d="M108.1,377.02c0-2.49.76-4.49,2.28-6.02,1.52-1.52,3.53-2.28,6.02-2.28h38.6c7.33,0,14.28.87,20.86,2.59,6.57,1.73,12.28,4.29,17.12,7.68,4.84,3.39,8.68,7.51,11.52,12.35,2.83,4.85,4.25,10.38,4.25,16.6,0,6.78-.97,12.52-2.91,17.23-1.94,4.71-4.57,8.54-7.89,11.52-3.32,2.98-7.23,5.26-11.73,6.85-4.5,1.59-9.31,2.67-14.42,3.22.69,4.71,1.9,7.75,3.63,9.13,1.73,1.38,4.39,2.08,7.99,2.08,3.04,0,6.02-.31,8.92-.93s7.12-1.62,12.66-3.01c2.35-.69,4.29-.45,5.81.73,1.52,1.18,2.28,3.01,2.28,5.5v41.09c0,2.49-.73,4.67-2.18,6.54-1.45,1.87-3.29,3.29-5.5,4.25-4.15,1.8-7.82,3.08-11,3.84-3.18.76-6.09,1.14-8.72,1.14-5.54,0-10.24-1.66-14.11-4.98-3.88-3.32-6.99-7.99-9.34-14.01-2.35-6.02-4.12-13.32-5.29-21.9-1.18-8.58-1.97-18.12-2.39-28.64h-4.98v58.11c0,2.49-.76,4.5-2.28,6.02-1.52,1.52-3.53,2.28-6.02,2.28h-24.91c-2.49,0-4.5-.76-6.02-2.28-1.52-1.52-2.28-3.53-2.28-6.02v-128.68ZM149.61,426.83h3.74c3.32,0,6.29-.69,8.92-2.08,2.63-1.38,3.94-4.22,3.94-8.51,0-4.01-1.32-6.71-3.94-8.09-2.63-1.38-5.54-2.08-8.72-2.08h-3.94v20.75Z"/>
    <path class="cls-1" d="M227.64,377.02c0-2.49.76-4.49,2.28-6.02,1.52-1.52,3.53-2.28,6.02-2.28h24.91c2.49,0,4.5.76,6.02,2.28,1.52,1.52,2.28,3.53,2.28,6.02v128.68c0,2.49-.76,4.5-2.28,6.02-1.52,1.52-3.53,2.28-6.02,2.28h-24.91c-2.49,0-4.5-.76-6.02-2.28-1.52-1.52-2.28-3.53-2.28-6.02v-128.68Z"/>
    <path class="cls-1" d="M289.9,377.02c0-2.49.76-4.49,2.28-6.02,1.52-1.52,3.53-2.28,6.02-2.28h38.6c7.33,0,14.15.59,20.44,1.76,6.29,1.18,11.76,3.15,16.4,5.92,4.63,2.77,8.27,6.51,10.9,11.21,2.63,4.71,3.94,10.58,3.94,17.64s-1.28,13.25-3.84,17.74c-2.56,4.5-5.85,8.06-9.86,10.69,5.12,3.74,9.37,8.41,12.76,14.01,3.39,5.6,5.08,12.35,5.08,20.24s-1.25,14.53-3.74,20.34c-2.49,5.81-6.02,10.62-10.58,14.42-4.57,3.81-10.03,6.64-16.4,8.51-6.37,1.87-13.42,2.8-21.17,2.8h-42.55c-2.49,0-4.5-.76-6.02-2.28-1.52-1.52-2.28-3.53-2.28-6.02v-128.68ZM331.41,420.61h3.74c3.46,0,6.12-.45,7.99-1.35,1.87-.9,2.8-2.94,2.8-6.12,0-2.77-.76-4.63-2.28-5.6-1.52-.97-4.29-1.45-8.3-1.45h-3.94v14.53ZM331.41,455.89h6.43c4.57,0,7.75-.76,9.55-2.28,1.8-1.52,2.7-3.25,2.7-5.19,0-1.66-.52-2.97-1.56-3.94-1.04-.97-2.32-1.66-3.84-2.08-1.52-.42-3.11-.69-4.77-.83-1.66-.14-3.11-.21-4.36-.21h-4.15v14.53Z"/>
    <path class="cls-1" d="M407.16,377.02c0-2.49.76-4.49,2.28-6.02,1.52-1.52,3.53-2.28,6.02-2.28h38.6c7.33,0,14.15.59,20.44,1.76,6.29,1.18,11.76,3.15,16.4,5.92,4.63,2.77,8.27,6.51,10.9,11.21,2.63,4.71,3.94,10.58,3.94,17.64s-1.28,13.25-3.84,17.74c-2.56,4.5-5.85,8.06-9.86,10.69,5.12,3.74,9.37,8.41,12.76,14.01,3.39,5.6,5.08,12.35,5.08,20.24s-1.25,14.53-3.74,20.34c-2.49,5.81-6.02,10.62-10.58,14.42-4.57,3.81-10.03,6.64-16.4,8.51-6.37,1.87-13.42,2.8-21.17,2.8h-42.55c-2.49,0-4.5-.76-6.02-2.28-1.52-1.52-2.28-3.53-2.28-6.02v-128.68ZM448.67,420.61h3.74c3.46,0,6.12-.45,7.99-1.35,1.87-.9,2.8-2.94,2.8-6.12,0-2.77-.76-4.63-2.28-5.6-1.52-.97-4.29-1.45-8.3-1.45h-3.94v14.53ZM448.67,455.89h6.43c4.57,0,7.75-.76,9.55-2.28,1.8-1.52,2.7-3.25,2.7-5.19,0-1.66-.52-2.97-1.56-3.94-1.04-.97-2.32-1.66-3.84-2.08-1.52-.42-3.11-.69-4.77-.83-1.66-.14-3.11-.21-4.36-.21h-4.15v14.53Z"/>
    <path class="cls-1" d="M524.42,377.02c0-2.49.76-4.49,2.28-6.02,1.52-1.52,3.53-2.28,6.02-2.28h24.91c2.49,0,4.5.76,6.02,2.28,1.52,1.52,2.28,3.53,2.28,6.02v128.68c0,2.49-.76,4.5-2.28,6.02-1.52,1.52-3.53,2.28-6.02,2.28h-24.91c-2.49,0-4.5-.76-6.02-2.28-1.52-1.52-2.28-3.53-2.28-6.02v-128.68Z"/>
    <path class="cls-1" d="M669.28,368.72c2.49,0,4.49.66,6.02,1.97,1.52,1.32,2.28,3.08,2.28,5.29v21.79c0,2.49-.76,4.5-2.28,6.02-1.52,1.52-3.53,2.28-6.02,2.28-2.63,0-4.91-.34-6.85-1.04-1.94-.69-3.53-1.04-4.77-1.04-1.66,0-3.01.49-4.05,1.45-1.04.97-1.83,2.18-2.39,3.63-.55,1.45-.93,3.08-1.14,4.88-.21,1.8-.31,3.53-.31,5.19v87.58c0,2.21-.76,3.98-2.28,5.29-1.52,1.32-3.53,1.97-6.02,1.97h-24.91c-2.49,0-4.5-.76-6.02-2.28-1.52-1.52-2.28-3.53-2.28-6.02v-86.55c0-1.66-.1-3.39-.31-5.19-.21-1.8-.59-3.42-1.14-4.88-.55-1.45-1.35-2.66-2.39-3.63-1.04-.97-2.39-1.45-4.05-1.45-1.25,0-2.84.35-4.77,1.04-1.94.69-4.22,1.04-6.85,1.04-2.49,0-4.5-.76-6.02-2.28-1.52-1.52-2.28-3.53-2.28-6.02v-21.79c0-2.21.76-3.98,2.28-5.29,1.52-1.31,3.53-1.97,6.02-1.97h80.53Z"/>
    <path class="cls-1" d="M774.71,368.72c2.49,0,4.49.66,6.02,1.97,1.52,1.32,2.28,3.08,2.28,5.29v21.79c0,2.49-.76,4.5-2.28,6.02-1.52,1.52-3.53,2.28-6.02,2.28-2.63,0-4.91-.34-6.85-1.04-1.94-.69-3.53-1.04-4.77-1.04-1.66,0-3.01.49-4.05,1.45-1.04.97-1.83,2.18-2.39,3.63-.55,1.45-.93,3.08-1.14,4.88-.21,1.8-.31,3.53-.31,5.19v87.58c0,2.21-.76,3.98-2.28,5.29-1.52,1.32-3.53,1.97-6.02,1.97h-24.91c-2.49,0-4.5-.76-6.02-2.28-1.52-1.52-2.28-3.53-2.28-6.02v-86.55c0-1.66-.1-3.39-.31-5.19-.21-1.8-.59-3.42-1.14-4.88-.55-1.45-1.35-2.66-2.39-3.63-1.04-.97-2.39-1.45-4.05-1.45-1.25,0-2.84.35-4.77,1.04-1.94.69-4.22,1.04-6.85,1.04-2.49,0-4.5-.76-6.02-2.28-1.52-1.52-2.28-3.53-2.28-6.02v-21.79c0-2.21.76-3.98,2.28-5.29,1.52-1.31,3.53-1.97,6.02-1.97h80.53Z"/>
    <path class="cls-1" d="M880.15,368.72c2.49,0,4.49.66,6.02,1.97,1.52,1.32,2.28,3.08,2.28,5.29v21.79c0,2.49-.76,4.5-2.28,6.02-1.52,1.52-3.53,2.28-6.02,2.28-2.63,0-4.91-.34-6.85-1.04-1.94-.69-3.53-1.04-4.77-1.04-1.66,0-3.01.49-4.05,1.45-1.04.97-1.83,2.18-2.39,3.63-.55,1.45-.93,3.08-1.14,4.88-.21,1.8-.31,3.53-.31,5.19v87.58c0,2.21-.76,3.98-2.28,5.29-1.52,1.32-3.53,1.97-6.02,1.97h-24.91c-2.49,0-4.5-.76-6.02-2.28-1.52-1.52-2.28-3.53-2.28-6.02v-86.55c0-1.66-.1-3.39-.31-5.19-.21-1.8-.59-3.42-1.14-4.88-.55-1.45-1.35-2.66-2.39-3.63-1.04-.97-2.39-1.45-4.05-1.45-1.25,0-2.84.35-4.77,1.04-1.94.69-4.22,1.04-6.85,1.04-2.49,0-4.5-.76-6.02-2.28-1.52-1.52-2.28-3.53-2.28-6.02v-21.79c0-2.21.76-3.98,2.28-5.29,1.52-1.31,3.53-1.97,6.02-1.97h80.53Z"/>
  </g>
</svg>